<svg class="img-fluid" id="outputsvg" xmlns="http://www.w3.org/2000/svg" style="transform: matrix(1, 0, 0, 1, 0, 0); transform-origin: 50% 50%; cursor: move; max-height: 355.54px; transition: transform 200ms ease-in-out 0s;" width="524" height="524" viewBox="0 0 5240 5240"><g id="l4E1xmThANOqkwyw3M1e64O" fill="white" style="transform: none;"><g style="transform: none;"><path id="py4EnKDNF" d="M2430 5173 c-367 -36 -649 -115 -949 -264 -261 -129 -470 -281 -678 -491 -206 -208 -342 -397 -472 -659 -279 -559 -343 -1174 -187 -1784 46 -177 93 -301 186 -490 250 -509 648 -907 1155 -1156 196 -96 314 -139 509 -189 238 -60 356 -74 621 -74 249 -1 341 8 552 54 962 208 1734 973 1948 1930 49 218 60 320 59 575 -1 196 -5 265 -22 375 -70 433 -235 822 -494 1168 -93 124 -304 341 -433 445 -456 368 -1043 572 -1624 565 -75 0 -152 -3 -171 -5z m656 -1554 c443 -43 677 -198 768 -510 54 -189 60 -448 13 -630 -28 -106 -80 -218 -137 -295 -39 -52 -39 -52 -24 -105 21 -77 30 -246 15 -306 -7 -26 -24 -74 -39 -107 -26 -59 -26 -59 -131 -53 -59 3 -133 13 -166 22 -76 20 -195 76 -257 120 -48 35 -48 35 -160 16 -224 -39 -445 -37 -693 5 -100 17 -100 17 -151 -19 -64 -46 -182 -102 -259 -122 -33 -9 -108 -19 -166 -22 -106 -6 -106 -6 -132 58 -34 82 -47 139 -46 214 0 54 18 177 34 230 4 14 -6 36 -34 74 -151 202 -211 472 -167 740 36 214 100 355 210 458 135 129 329 203 606 232 124 12 788 13 916 0z"></path><path id="p1EriGrD7y" d="M2345 3534 c-16 -2 -70 -9 -120 -15 -345 -43 -526 -218 -526 -509 -1 -197 79 -338 230 -409 52 -24 66 -26 186 -25 76 0 178 8 245 19 159 26 370 24 569 -3 241 -34 347 -26 440 32 124 78 201 255 186 424 -18 213 -123 349 -325 423 -142 51 -225 61 -555 64 -165 2 -313 1 -330 -1z m-117 -273 c18 -12 45 -49 62 -85 67 -135 47 -320 -45 -411 -54 -54 -97 -65 -161 -40 -86 33 -139 141 -139 285 1 71 5 95 28 145 32 67 49 90 92 117 40 25 120 20 163 -11z m957 13 c65 -31 115 -130 123 -246 10 -149 -66 -295 -163 -314 -121 -22 -220 108 -220 291 0 202 126 333 260 269z"></path></g></g></svg>