<svg width="393" height="393" viewBox="0 0 393 393" fill="none" xmlns="http://www.w3.org/2000/svg">
<path fill-rule="evenodd" clip-rule="evenodd" d="M187.192 0.805976C183.008 0.933976 179.398 1.15398 179.171 1.29398C178.944 1.43398 176.428 1.75398 173.579 2.00398C170.731 2.25298 167.264 2.71498 165.875 3.02898C164.487 3.34298 162.872 3.59998 162.288 3.59998C161.704 3.59998 159.78 3.94198 158.013 4.35898C156.246 4.77698 153.9 5.30598 152.8 5.53498C149.321 6.25898 144.498 7.48298 141.6 8.37698C140.06 8.85198 138.17 9.40598 137.4 9.60898C136.63 9.81198 134.47 10.537 132.6 11.22C130.73 11.903 128.624 12.634 127.92 12.844C127.216 13.054 126.136 13.489 125.52 13.811C124.904 14.132 124.13 14.397 123.8 14.4C123.47 14.403 122.66 14.763 122 15.2C121.34 15.637 120.586 15.996 120.324 15.997C119.048 16.004 98.9321 26.024 97.3691 27.432C97.0211 27.744 96.5711 28 96.3691 28.001C96.1661 28.001 94.9631 28.721 93.6961 29.601C92.4281 30.48 91.3151 31.2 91.2201 31.2C91.0271 31.2 82.5641 36.878 81.0101 38.05C77.8531 40.431 69.7431 46.888 68.2211 48.231C62.0881 53.643 56.8741 58.641 53.6911 62.158C51.6801 64.381 49.2771 67.01 48.3511 68C47.4261 68.99 45.7561 70.97 44.6421 72.4C43.5271 73.83 42.3771 75.27 42.0861 75.6C38.7901 79.344 26.2001 98.03 26.2001 99.179C26.2001 99.379 25.9681 99.781 25.6841 100.071C25.4001 100.362 24.8061 101.32 24.3641 102.2C22.2311 106.448 19.6661 111.462 19.3501 112C19.1561 112.33 18.8091 113.05 18.5781 113.6C18.3471 114.15 17.8081 115.365 17.3791 116.3C16.9511 117.235 16.2641 118.765 15.8531 119.7C15.4421 120.635 14.8121 122.057 14.4531 122.86C14.0941 123.664 13.8001 124.474 13.8001 124.66C13.8001 124.847 13.0801 126.756 12.2001 128.902C11.3201 131.048 10.6001 133.067 10.6001 133.388C10.6001 133.71 10.3431 134.564 10.0281 135.286C9.47811 136.551 8.61611 139.363 7.02311 145.096C5.78411 149.553 5.36011 151.27 4.82211 154C4.54011 155.43 4.11711 157.32 3.88111 158.2C3.64611 159.08 3.33111 160.88 3.18211 162.2C3.03211 163.52 2.67911 165.509 2.39711 166.621C2.11611 167.732 1.76211 170.252 1.61111 172.221C1.46011 174.189 1.08111 177.834 0.768106 180.32C0.115106 185.515 0.00510627 206.731 0.605106 211.6C0.809106 213.25 1.17311 216.85 1.41411 219.6C1.65611 222.35 2.09311 225.59 2.38611 226.8C2.67911 228.01 3.02811 229.99 3.16211 231.2C3.43011 233.626 4.24311 237.463 5.42711 241.892C5.85211 243.482 6.20011 245.089 6.20011 245.463C6.20011 245.837 6.54111 247.236 6.95711 248.572C7.37311 249.907 8.10811 252.35 8.59011 254C9.07211 255.65 9.71311 257.63 10.0161 258.4C10.3181 259.17 10.7411 260.43 10.9551 261.2C11.3141 262.49 13.7661 269.138 14.5711 271C15.0361 272.078 16.9141 276.313 17.5861 277.8C19.7551 282.603 24.5431 291.946 25.3541 292.961C25.5471 293.202 26.2301 294.39 26.8711 295.6C28.5121 298.697 32.9141 305.466 37.6641 312.2C44.2201 321.495 55.6861 334.161 65.1831 342.6C66.9161 344.14 68.6561 345.707 69.0501 346.083C72.6411 349.509 90.2701 362.4 91.3631 362.4C91.5351 362.4 92.0021 362.76 92.4001 363.2C92.7981 363.64 93.2671 364 93.4421 364C93.6171 364 94.5511 364.534 95.5171 365.186C96.4841 365.838 97.7081 366.571 98.2371 366.814C98.7671 367.057 100.1 367.77 101.2 368.399C104.186 370.106 114.775 375.326 118.2 376.779C119.85 377.479 121.74 378.291 122.4 378.583C123.558 379.096 125.881 379.969 130.3 381.552C134.611 383.097 134.76 383.144 144.2 385.976C145.63 386.405 147.61 386.932 148.6 387.147C149.59 387.362 151.12 387.719 152 387.941C153.412 388.296 155.826 388.777 164.2 390.372C165.41 390.603 168.02 390.98 170 391.211C171.98 391.441 175.881 391.906 178.669 392.243C185.69 393.091 206.683 393.088 213.933 392.237C227.356 390.662 226.772 390.747 235 389.154C242.21 387.758 254.939 384.353 258.114 382.972C258.836 382.657 259.716 382.4 260.07 382.4C260.423 382.4 261.452 382.062 262.356 381.649C263.26 381.236 264.99 380.532 266.2 380.085C269.732 378.778 273.892 377.144 274.572 376.795C274.917 376.618 276.82 375.727 278.8 374.816C284.974 371.974 291.68 368.375 298.4 364.297C300.12 363.254 309.297 357.132 310.986 355.901C313.815 353.839 320.699 348.522 321.839 347.516C322.411 347.012 324.211 345.438 325.839 344.018C335.251 335.812 349.226 320.468 355 312.001C355.33 311.517 356.267 310.194 357.083 309.06C360.791 303.908 362.432 301.311 366.412 294.29C368.311 290.94 370.018 287.93 370.206 287.6C371.568 285.199 374.998 277.866 377.969 271C378.502 269.768 379.511 267.076 380.894 263.2C381.326 261.99 381.907 260.37 382.185 259.6C382.463 258.83 382.931 257.39 383.226 256.4C383.52 255.41 384.31 252.753 384.981 250.496C385.651 248.239 386.2 246.119 386.2 245.786C386.2 245.453 386.56 244.156 387 242.904C387.44 241.652 387.8 240.065 387.8 239.377C387.8 238.69 388.074 237.244 388.408 236.164C388.742 235.084 389.178 233.03 389.376 231.6C389.575 230.17 390.007 227.29 390.336 225.2C392.406 212.061 393.207 188.7 391.871 180.4C391.605 178.75 391.214 175.54 391 173.268C390.561 168.589 389.72 163.407 388.578 158.358C388.15 156.465 387.8 154.434 387.8 153.845C387.8 153.256 387.558 152.195 387.263 151.487C386.967 150.779 386.592 149.48 386.429 148.6C386.171 147.207 385.356 144.31 383.221 137.2C381.719 132.197 378.454 123.485 376.401 119C376.099 118.34 375.379 116.72 374.801 115.4C374.224 114.08 373.586 112.73 373.384 112.4C373.182 112.07 372.649 110.99 372.199 110C371.749 109.01 371.123 107.75 370.808 107.2C370.492 106.65 370.049 105.79 369.823 105.288C369.596 104.787 368.418 102.657 367.205 100.556C365.992 98.456 365 96.669 365 96.586C365 96.503 364.595 95.827 364.1 95.082C363.605 94.338 362.57 92.7 361.8 91.442C361.03 90.184 359.32 87.649 358 85.808C356.68 83.967 355.33 82.068 355 81.588C345.455 67.685 325.77 48.103 310.504 37.326C308.368 35.818 299.862 30.195 298.4 29.323C294.043 26.728 290.111 24.49 287.598 23.174C285.933 22.302 284.262 21.411 283.885 21.194C283.508 20.978 282.75 20.621 282.2 20.401C281.65 20.182 280.93 19.834 280.6 19.629C280.27 19.424 279.19 18.902 278.2 18.468C271.056 15.338 268.529 14.325 261.906 11.939C260.638 11.482 259.033 10.87 258.34 10.58C257.647 10.289 256.387 9.92598 255.54 9.77398C254.693 9.62098 253.818 9.35298 253.595 9.17798C253.209 8.87498 252.325 8.62898 245.372 6.89198C243.706 6.47598 242.139 6.00898 241.888 5.85398C241.638 5.69998 240.3 5.41998 238.916 5.23298C237.532 5.04698 235.23 4.61798 233.8 4.28098C230.36 3.46898 226.672 2.89198 220.6 2.21598C217.85 1.90898 214.07 1.47398 212.2 1.24898C207.734 0.711976 196.679 0.515976 187.192 0.805976ZM248.6 85.152C254.086 85.876 259.672 86.848 261.4 87.378C262.39 87.682 263.65 88.024 264.2 88.138C268.54 89.034 277.013 92.965 281.578 96.2C283.13 97.3 284.85 98.491 285.4 98.847C286.84 99.779 293.338 106.348 294.454 108C294.974 108.77 296.117 110.39 296.995 111.6C297.872 112.81 299.419 115.51 300.433 117.6C301.446 119.69 302.508 121.85 302.792 122.4C303.075 122.95 303.439 124.03 303.6 124.8C303.761 125.57 304.038 126.382 304.216 126.605C304.59 127.072 305.671 131.189 306.263 134.4C306.486 135.61 306.936 137.95 307.263 139.6C309.204 149.4 309.198 244.08 307.256 254C306.933 255.65 306.486 257.99 306.263 259.2C305.671 262.411 304.59 266.528 304.216 266.995C304.038 267.218 303.761 268.03 303.6 268.8C303.439 269.57 303.075 270.65 302.791 271.2C302.507 271.75 301.616 273.587 300.811 275.283C300.006 276.978 298.91 279.011 298.374 279.8C297.838 280.59 297.4 281.317 297.4 281.417C297.4 281.663 293.89 286.243 292.4 287.941C287.497 293.529 280.844 298.519 274 301.741C272.68 302.363 271.296 303.03 270.924 303.224C268.852 304.305 258.438 307.201 256.6 307.207C255.83 307.21 254.044 307.484 252.632 307.817C244.13 309.821 149.36 309.822 139.874 307.818C138.264 307.478 136.36 307.2 135.641 307.2C134.923 307.2 133.089 306.833 131.567 306.384C125.688 304.651 122.159 303.458 121.96 303.135C121.846 302.951 121.482 302.8 121.151 302.8C120.511 302.8 116.653 300.958 114 299.386C113.12 298.865 112.13 298.306 111.8 298.146C107.384 295.992 93.4001 281.226 93.4001 278.717C93.4001 278.585 92.7701 277.362 92.0001 276C91.2301 274.638 90.5991 273.315 90.5981 273.062C90.5961 272.808 90.3111 272.06 89.9631 271.4C88.7661 269.128 85.7971 258.808 85.7991 256.926C85.7991 256.226 85.5361 254.395 85.2121 252.859C84.2801 248.425 83.8051 229.405 83.8091 196.6C83.8141 150.703 84.3611 140.376 87.3421 129.8C88.3141 126.35 88.8941 124.679 89.8561 122.556C90.2651 121.652 90.6001 120.628 90.6001 120.28C90.6001 119.932 90.7571 119.55 90.9491 119.431C91.1411 119.313 91.8051 118.177 92.4231 116.908C95.3831 110.835 100.82 104.129 106.6 99.422C109.692 96.904 113.852 94.001 114.369 94.001C114.571 94 115.021 93.762 115.369 93.471C115.716 93.18 117.17 92.451 118.6 91.851C120.03 91.25 121.491 90.602 121.847 90.409C122.582 90.012 127.315 88.429 130.6 87.481C131.81 87.133 134.234 86.653 135.988 86.415C137.741 86.178 139.901 85.785 140.788 85.542C144.541 84.513 241.109 84.164 248.6 85.152ZM171.2 104.827C145.721 105.067 142.811 105.265 135.4 107.266C130.057 108.709 123.935 111.432 121.974 113.239C121.52 113.658 120.999 114 120.815 114C119.989 114 112.499 122.185 111.665 124C111.514 124.33 110.928 125.41 110.365 126.4C107.946 130.647 106.683 134.948 105.136 144.2C104.45 148.302 104.4 151.865 104.4 196.8C104.4 247.926 104.365 246.788 106.215 255.4C110.105 273.503 122.204 284.724 140.8 287.476C148.974 288.685 151.471 288.777 182.6 289.023C231.154 289.405 248.714 288.775 256.967 286.353C258.379 285.939 259.729 285.599 259.967 285.598C260.502 285.596 264.311 284.024 266.2 283.026C277.977 276.803 284.665 266.612 287.216 251C289.011 240.021 289.011 153.579 287.216 142.6C285.409 131.541 282.097 124.139 276.277 118.15C272.598 114.365 265.817 109.6 264.108 109.6C263.877 109.6 262.948 109.261 262.044 108.846C255.696 105.933 248.595 105.12 228 104.946C218.1 104.863 206.67 104.751 202.6 104.698C198.53 104.644 184.4 104.702 171.2 104.827ZM262.133 124.621C273.771 130.443 271.911 146.601 259.239 149.753C251.219 151.748 242.982 145.145 243.005 136.738C243.032 126.714 253.306 120.205 262.133 124.621ZM205.6 139.78C209.683 140.446 212.26 141.149 217.6 143.056C220.809 144.203 228.077 148.242 230.6 150.281C230.93 150.548 231.887 151.304 232.726 151.96C235.813 154.375 240.673 159.443 242.928 162.6C245.551 166.272 249.781 173.856 249.814 174.945C249.821 175.195 250.175 176.12 250.6 177C251.025 177.88 251.379 178.921 251.386 179.313C251.394 179.705 251.669 180.67 251.998 181.457C254.586 187.651 254.586 205.949 251.998 212.143C251.669 212.93 251.399 213.895 251.398 214.287C251.396 214.679 251.146 215.478 250.841 216.061C250.537 216.645 250.065 217.798 249.792 218.623C249.169 220.512 246.532 225.598 245.056 227.759C244.44 228.661 243.353 230.253 242.642 231.295C240.34 234.67 235.78 239.383 232.144 242.145C227.525 245.654 219.372 250.4 217.963 250.4C217.631 250.4 216.808 250.686 216.132 251.035C211.305 253.531 196.977 255.43 190.8 254.392C189.48 254.17 187.157 253.808 185.638 253.587C182.669 253.155 177.902 251.815 176.229 250.942C175.663 250.647 174.995 250.404 174.743 250.402C174.358 250.4 169.544 248.041 165.839 246.038C160.356 243.074 149.852 232.542 147 227.151C144.244 221.939 142.591 218.502 142.595 217.989C142.598 217.653 142.351 217.023 142.047 216.589C137.678 210.35 137.678 183.25 142.047 177.011C142.351 176.577 142.598 175.947 142.595 175.611C142.591 175.096 144.682 170.779 147.003 166.509C150.135 160.746 159.734 151.098 165.6 147.816C166.26 147.447 167.52 146.72 168.4 146.2C170.545 144.933 174.188 143.203 174.748 143.186C174.997 143.179 175.92 142.825 176.8 142.4C177.68 141.975 178.721 141.621 179.113 141.614C179.505 141.606 180.448 141.34 181.21 141.022C181.971 140.704 183.99 140.237 185.697 139.985C187.404 139.733 189.79 139.374 191 139.188C193.863 138.747 201.047 139.038 205.6 139.78ZM191.8 159.655C181.745 160.688 170.874 167.152 165.547 175.267C163.595 178.24 163.414 178.548 162.543 180.4C149.717 207.667 171.535 237.721 201.351 233.856C204.073 233.503 206.503 233.052 206.751 232.853C206.998 232.655 207.83 232.359 208.6 232.196C215.251 230.788 226.02 221.588 229.384 214.441C229.86 213.428 230.406 212.309 230.596 211.953C234.527 204.584 234.531 189.163 230.603 181.647C230.417 181.291 229.873 180.19 229.395 179.2C226.05 172.274 213.749 161.6 209.113 161.6C208.809 161.6 207.984 161.301 207.28 160.936C206.576 160.571 203.93 160.039 201.4 159.754C196.25 159.173 196.476 159.175 191.8 159.655Z" fill="white"/>
</svg>
