<svg width="391" height="392" viewBox="0 0 391 392" fill="none" xmlns="http://www.w3.org/2000/svg">
<path fill-rule="evenodd" clip-rule="evenodd" d="M180.45 0.603016C179.243 0.769016 175.923 1.11302 173.072 1.36902C170.22 1.62502 167.169 2.02202 166.292 2.25202C165.415 2.48102 163.082 2.90902 161.108 3.20202C156.711 3.85402 150.427 5.15102 149.806 5.53402C149.555 5.69002 148.259 5.99302 146.927 6.20702C145.595 6.42202 144.203 6.76502 143.833 6.97102C143.464 7.17602 142.174 7.60202 140.968 7.91602C138.427 8.57902 135.386 9.48602 133.391 10.178C129.797 11.425 126.298 12.711 125.155 13.206C124.464 13.505 123.773 13.75 123.62 13.75C123.35 13.75 122.906 13.937 118.236 16.02C113.176 18.276 112.28 18.697 108.665 20.512C103.423 23.145 99.5131 25.227 98.0971 26.14C97.4391 26.564 96.4521 27.135 95.9031 27.409C92.7451 28.987 77.8581 39.23 74.7671 41.952C74.4381 42.241 73.0291 43.368 71.6371 44.455C66.1361 48.752 55.7001 58.754 50.2321 64.97C48.7011 66.71 47.1791 68.416 46.8501 68.76C43.6201 72.142 33.7761 85.474 30.3001 91.174C27.7821 95.304 25.2831 99.54 24.2151 101.487C22.8811 103.921 18.6551 112.375 17.7371 114.448C16.1871 117.946 15.4531 119.586 14.5911 121.47C14.1281 122.481 13.7501 123.525 13.7501 123.79C13.7501 124.054 13.5331 124.663 13.2691 125.142C11.7921 127.816 7.19411 142.498 5.44011 150.141C3.66511 157.873 3.39011 159.214 3.15211 161.307C3.01411 162.513 2.66211 164.488 2.37011 165.694C2.07811 166.9 1.64211 170.131 1.40111 172.872C1.16011 175.614 0.797113 179.203 0.594113 180.848C-0.00288677 185.69 0.106113 206.853 0.755113 212.034C1.06511 214.513 1.43511 218.067 1.57811 219.931C1.72011 221.796 2.07611 224.398 2.36911 225.714C2.66211 227.03 3.02411 229.094 3.17311 230.3C3.32211 231.506 3.63411 233.211 3.86611 234.089C4.09811 234.966 4.52211 236.85 4.80811 238.276C5.69211 242.674 6.57611 246.379 7.13811 248.047C7.43411 248.924 8.07411 250.988 8.56011 252.633C9.78711 256.783 10.8501 260.025 11.8291 262.603C13.5291 267.076 14.2001 268.805 14.5411 269.582C14.7331 270.021 15.3741 271.546 15.9661 272.972C16.5581 274.398 18.5901 278.667 20.4811 282.459C24.7371 290.994 24.9831 291.469 25.2771 291.716C25.4081 291.826 25.8511 292.544 26.2631 293.311C27.8281 296.229 28.6161 297.539 29.5421 298.768C30.0691 299.466 30.5001 300.148 30.5001 300.283C30.5001 301.055 38.3421 312.032 43.5031 318.483C56.4801 334.704 77.0571 352.86 93.2651 362.39C94.1181 362.891 95.1101 363.481 95.4691 363.7C95.8291 363.919 98.0031 365.141 100.301 366.416C102.598 367.69 104.747 368.889 105.076 369.081C107.233 370.337 114.69 373.828 121.626 376.829C124.786 378.197 134.74 381.68 139.373 383.04C141.018 383.523 143.159 384.17 144.13 384.477C145.101 384.784 146.222 385.036 146.621 385.036C147.02 385.036 148.378 385.372 149.64 385.784C150.903 386.195 153.012 386.723 154.328 386.957C157.486 387.519 160.833 388.137 164.498 388.836C166.143 389.149 169.642 389.603 172.274 389.843C174.906 390.084 177.953 390.45 179.044 390.656C182.27 391.266 199.662 391.534 206.172 391.074C216.385 390.352 229.379 388.634 234.114 387.378C235.664 386.967 237.393 386.631 237.957 386.631C238.521 386.631 239.855 386.366 240.922 386.043C242.856 385.457 246.216 384.559 249.243 383.819C250.121 383.605 251.467 383.185 252.234 382.887C253.002 382.589 254.348 382.158 255.225 381.929C257.795 381.26 265.161 378.622 265.574 378.223C265.783 378.022 266.197 377.857 266.494 377.857C267.06 377.857 275.127 374.513 276.163 373.849C276.492 373.638 277.03 373.36 277.359 373.23C280.395 372.035 293.327 365.239 294.171 364.395C294.444 364.122 294.846 363.899 295.064 363.899C295.283 363.899 296.099 363.475 296.879 362.957C297.658 362.439 300.45 360.609 303.082 358.892C308.589 355.297 309.919 354.333 316.565 349.117C327.487 340.544 340.583 327.637 347.097 319.023C347.756 318.152 348.619 317.082 349.014 316.646C350.498 315.008 355.472 308.096 358.488 303.481C360.209 300.848 362.04 298.057 362.558 297.278C363.076 296.498 363.5 295.682 363.5 295.463C363.5 295.245 363.724 294.843 363.996 294.57C364.944 293.622 371.622 280.751 374.582 274.168C376.262 270.431 377.06 268.47 377.06 268.08C377.06 267.857 377.397 266.938 377.808 266.037C378.48 264.565 378.984 263.233 380.613 258.615C382.218 254.065 384.6 245.619 385.843 240.071C386.089 238.974 386.568 236.91 386.908 235.485C387.248 234.059 387.756 231.367 388.038 229.502C388.319 227.638 388.736 224.946 388.964 223.52C391.584 207.15 391.515 182.903 388.804 166.89C388.488 165.026 388.127 162.693 388.001 161.706C387.787 160.02 386.743 154.98 385.77 150.938C383.862 143.005 382.871 139.354 382.357 138.363C382.133 137.931 381.83 136.913 381.684 136.1C381.537 135.286 381.155 134.12 380.836 133.507C380.517 132.895 380.253 132.125 380.25 131.796C380.248 131.467 379.994 130.716 379.687 130.128C379.38 129.539 379.012 128.525 378.869 127.873C378.726 127.222 378.26 126.005 377.834 125.17C377.408 124.334 377.06 123.37 377.06 123.026C377.06 122.683 376.815 122.048 376.515 121.615C376.216 121.183 375.835 120.38 375.67 119.832C375.094 117.926 368.645 104.675 366.451 100.888C365.943 100.011 365.251 98.755 364.913 98.097C364.576 97.439 363.946 96.362 363.513 95.704C363.08 95.046 362.378 93.879 361.954 93.112C360.417 90.328 355.257 82.811 352.105 78.762C350.992 77.332 349.086 74.86 347.869 73.269C345.812 70.578 342.494 66.738 339.173 63.202C338.406 62.385 337.041 60.928 336.14 59.966C331.876 55.41 321.028 45.472 317.561 42.945C316.269 42.004 314.879 40.927 314.472 40.552C314.065 40.178 312.72 39.154 311.482 38.276C310.245 37.399 308.347 36.008 307.265 35.185C306.184 34.363 305.211 33.69 305.103 33.69C304.995 33.69 303.49 32.725 301.757 31.545C300.025 30.365 298.146 29.154 297.582 28.853C296.652 28.356 287.963 23.387 286.531 22.532C285.665 22.015 282.113 20.249 280.948 19.757C280.4 19.525 279.682 19.166 279.353 18.96C279.024 18.753 277.857 18.195 276.761 17.719C275.664 17.243 274.049 16.533 273.171 16.141C270.889 15.121 267.957 13.944 265.195 12.94C263.879 12.461 262.264 11.832 261.606 11.541C260.948 11.251 259.961 10.9 259.413 10.763C258.864 10.626 257.788 10.279 257.02 9.99302C256.252 9.70602 254.278 9.07502 252.633 8.59002C250.988 8.10502 248.565 7.36202 247.249 6.94002C245.933 6.51802 244.539 6.17202 244.15 6.17202C243.762 6.17202 242.146 5.82802 240.561 5.40702C236.416 4.30702 232.398 3.45002 230.101 3.17702C229.004 3.04602 226.94 2.68002 225.514 2.36302C224.089 2.04602 220.769 1.60602 218.137 1.38502C215.504 1.16402 212.005 0.812017 210.36 0.604017C206.872 0.163017 183.669 0.162016 180.45 0.603016ZM123.022 84.296C138.918 88.532 146.961 107.149 138.65 120.47C136.233 124.342 130.432 129.79 128.709 129.804C128.542 129.805 127.867 130.092 127.209 130.442C123.487 132.418 113.784 133.631 109.861 132.61C109.094 132.41 107.479 131.989 106.272 131.676C104.225 131.143 102.043 130.22 99.3661 128.753C96.6071 127.241 90.3201 119.747 90.3201 117.969C90.3201 117.653 89.9341 116.552 89.4621 115.522C87.2301 110.65 88.6291 100.186 92.2421 94.741C94.4191 91.461 99.1051 87.13 100.477 87.13C100.759 87.13 101.204 86.872 101.465 86.557C101.727 86.242 102.511 85.862 103.209 85.711C103.907 85.561 104.95 85.197 105.528 84.902C107.989 83.645 119.131 83.259 123.022 84.296ZM263.6 149.746C270.832 150.404 279.763 153.372 284.802 156.791C285.553 157.301 286.259 157.718 286.371 157.718C287.67 157.718 299.293 169.32 299.293 170.617C299.293 170.741 299.73 171.487 300.264 172.274C300.798 173.061 301.891 175.088 302.692 176.778C303.493 178.468 304.336 180.201 304.565 180.628C305.204 181.819 307.097 187.895 307.804 191.018C310.012 200.782 309.838 196.287 309.968 247.05C310.034 272.823 309.989 294.313 309.868 294.807L309.647 295.704H286.538C264.099 295.704 263.417 295.682 263.016 294.932C262.739 294.415 262.603 280.531 262.603 252.743C262.603 218.902 262.503 210.927 262.054 209.148C261.752 207.95 261.396 206.236 261.262 205.338C260.925 203.081 258.951 198.472 257.099 195.621C248.428 182.273 224.445 184.508 216.63 199.393C212.471 207.314 212.753 203.509 212.753 251.792C212.753 278.029 212.608 294.04 212.364 294.681L211.975 295.704H188.858C171.133 295.704 165.671 295.591 165.441 295.219C165.115 294.691 165.215 153.384 165.542 152.855C166.042 152.046 211.902 152.486 212.34 153.305C212.588 153.768 212.753 157.511 212.753 162.677C212.753 171.732 212.81 171.995 214.367 170.063C214.905 169.395 215.632 168.542 215.984 168.168C216.335 167.794 216.784 167.189 216.981 166.824C217.548 165.77 222.055 161.158 223.97 159.67C224.929 158.926 225.804 158.226 225.913 158.116C226.514 157.511 229.411 155.724 229.79 155.724C230.034 155.724 230.293 155.584 230.367 155.412C230.44 155.241 231.487 154.635 232.693 154.067C239.305 150.953 243.206 149.969 251.038 149.437C255.8 149.113 256.947 149.141 263.6 149.746ZM137.951 152.922L138.974 153.311V223.881C138.974 287.503 138.912 294.512 138.347 295.077C137.367 296.058 92.9321 296.026 91.8471 295.044C90.7681 294.067 90.7001 154.454 91.7781 153.263C92.5341 152.427 135.809 152.108 137.951 152.922Z" fill="white"/>
</svg>
