<svg id="svg" version="1.1" xmlns="http://www.w3.org/2000/svg" xmlns:xlink="http://www.w3.org/1999/xlink" width="400" height="400" viewBox="0, 0, 400,400"><g id="svgg"><path id="path0" d="M186.200 3.640 C 174.321 4.618,162.673 6.489,152.600 9.037 C 145.870 10.739,144.204 11.228,137.800 13.377 C 76.384 33.995,27.122 85.585,10.587 146.600 C 8.327 154.940,7.860 156.997,6.380 165.100 C 2.629 185.642,2.206 208.855,5.220 228.700 C 6.115 234.592,6.462 236.693,6.788 238.200 C 6.979 239.080,7.358 240.880,7.631 242.200 C 11.587 261.357,18.901 280.232,29.716 299.200 C 53.375 340.694,92.003 371.923,139.800 388.196 C 144.533 389.807,155.795 392.700,162.200 393.949 C 187.624 398.909,214.017 398.858,239.200 393.802 C 246.348 392.366,248.510 391.855,253.800 390.345 C 308.358 374.780,352.956 337.461,377.778 286.600 C 384.974 271.854,389.248 259.547,393.195 242.200 C 398.459 219.066,399.031 191.350,394.754 166.600 C 380.887 86.342,318.229 22.384,238.200 6.798 C 236.880 6.540,235.350 6.237,234.800 6.123 C 223.654 3.813,199.240 2.566,186.200 3.640 M171.110 110.600 C 172.411 115.370,173.974 121.173,174.988 125.000 C 175.279 126.100,177.628 134.830,180.206 144.400 C 185.260 163.156,187.341 170.900,189.179 177.800 C 189.823 180.220,190.645 183.280,191.005 184.600 C 191.365 185.920,192.084 188.620,192.603 190.600 C 193.592 194.370,194.369 197.249,195.439 201.100 C 195.790 202.365,196.222 204.030,196.399 204.800 C 197.204 208.309,198.370 212.130,198.753 212.513 C 199.268 213.028,199.285 212.985,200.626 207.800 C 201.634 203.906,202.357 201.161,204.000 195.000 C 204.440 193.350,205.160 190.650,205.600 189.000 C 206.040 187.350,206.746 184.695,207.169 183.100 C 207.591 181.505,208.235 179.120,208.598 177.800 C 208.962 176.480,209.684 173.780,210.203 171.800 C 210.723 169.820,211.416 167.210,211.744 166.000 C 212.644 162.678,213.995 157.644,214.589 155.400 C 214.880 154.300,216.239 149.260,217.610 144.200 C 218.981 139.140,220.511 133.470,221.011 131.600 C 221.510 129.730,223.040 124.060,224.409 119.000 C 225.779 113.940,227.029 109.256,227.187 108.591 C 227.345 107.925,227.690 106.980,227.952 106.489 L 228.430 105.596 272.315 105.698 L 316.200 105.800 316.200 119.400 L 316.200 133.000 311.600 133.214 C 305.150 133.513,302.098 135.253,299.502 140.111 L 298.600 141.800 298.495 198.180 C 298.375 261.887,298.116 256.711,301.626 260.552 C 304.399 263.586,306.647 264.480,312.100 264.716 L 316.400 264.903 316.400 278.453 L 316.400 292.004 274.500 291.902 L 232.600 291.800 232.488 279.200 C 232.427 272.270,232.474 266.199,232.594 265.708 C 232.809 264.827,232.907 264.815,240.906 264.708 L 249.000 264.600 249.075 205.200 C 249.128 163.930,249.024 146.105,248.736 146.800 C 248.281 147.900,247.544 150.447,244.400 161.800 C 243.242 165.980,241.597 171.920,240.743 175.000 C 239.890 178.080,239.016 181.230,238.800 182.000 C 238.584 182.770,237.684 186.010,236.800 189.200 C 235.916 192.390,235.016 195.630,234.800 196.400 C 234.584 197.170,233.684 200.410,232.800 203.600 C 231.916 206.790,231.014 210.030,230.797 210.800 C 229.773 214.425,224.834 232.075,221.003 245.800 C 218.670 254.160,215.395 265.860,213.726 271.800 C 212.057 277.740,210.112 284.670,209.403 287.200 L 208.114 291.800 191.974 291.800 L 175.834 291.800 173.971 285.200 C 172.241 279.069,170.509 272.851,166.172 257.200 C 165.227 253.790,163.552 247.760,162.449 243.800 C 152.909 209.540,150.240 199.929,149.783 198.200 C 149.493 197.100,146.183 185.285,142.428 171.944 C 138.672 158.603,135.600 147.578,135.600 147.444 C 135.600 147.310,135.420 147.200,135.200 147.200 C 134.857 147.200,134.558 264.209,134.900 264.479 C 134.955 264.522,138.690 264.657,143.200 264.779 L 151.400 265.000 151.400 278.400 L 151.400 291.800 116.295 291.902 L 81.189 292.004 81.295 278.502 L 81.400 265.000 85.400 264.752 C 92.491 264.311,95.549 262.630,98.000 257.825 L 99.400 255.081 99.400 198.840 L 99.400 142.600 98.536 140.730 C 96.174 135.619,92.672 133.519,86.000 133.212 L 81.400 133.000 81.294 119.803 C 81.236 112.545,81.276 106.379,81.383 106.101 C 81.537 105.698,90.469 105.617,125.688 105.698 L 169.800 105.800 171.110 110.600 " stroke="none" fill="white" fill-rule="evenodd"></path></g></svg>