<svg width="246" height="44" viewBox="0 0 246 44" fill="none" xmlns="http://www.w3.org/2000/svg">
<g clip-path="url(#clip0_7_5)">
<path d="M158.7 10.7H162.4V32.8H158.7V10.7ZM145.2 10.2C142.8 10.2 140.6 11 138.8 12.5V10.7H135.1V32.8H138.8V20.3C138.8 16.7 141.7 13.9 145.2 13.9C148.7 13.9 151.6 16.8 151.6 20.3V32.8H155.3V20.3C155.3 14.7 150.8 10.2 145.2 10.2ZM127.7 10.6H131.4V31.9C131.3 38.2 126.2 43.3 119.9 43.4C114.9 43.5 110.3 40.2 108.9 35.4H112.9C114.2 38.1 116.9 39.8 119.9 39.7C124.2 39.6 127.6 36.1 127.8 31.8V30C123.1 34.3 115.8 34.1 111.5 29.4C107.2 24.7 107.4 17.4 112.1 13.1C116.5 9 123.4 9 127.8 13.1L127.7 10.6ZM127.7 21.7C127.7 17.4 124.2 13.8 119.9 13.8C115.6 13.8 112 17.3 112 21.6C112 25.9 115.5 29.5 119.9 29.5C124.2 29.5 127.7 26 127.7 21.7ZM70.7 13.8C73.7 13.8 76.5 15.6 77.8 18.3H81.7C79.9 12.2 73.4 8.7 67.3 10.6C61.2 12.4 57.7 18.9 59.6 25C61.5 31.1 67.9 34.6 74 32.7C77.7 31.6 80.6 28.7 81.7 25H77.8C76 28.9 71.3 30.6 67.4 28.8C63.5 27 61.8 22.3 63.6 18.4C64.9 15.6 67.6 13.8 70.7 13.8ZM106.6 21.7C106.6 28.1 101.4 33.2 95.1 33.2C88.7 33.2 83.6 28 83.6 21.7C83.6 15.4 88.6 10.2 95 10.2C101.4 10.2 106.6 15.3 106.6 21.7ZM102.9 21.7C102.9 17.4 99.4 13.8 95.1 13.8C90.8 13.8 87.2 17.3 87.2 21.6C87.2 25.9 90.7 29.5 95 29.5C99.4 29.5 102.9 26 102.9 21.7ZM223.4 10.2C221 10.2 218.8 11 217 12.5V10.7H213.3V32.8H217V20.3C217 16.7 219.9 13.8 223.4 13.8C227 13.8 229.9 16.7 229.9 20.2V32.7H233.6V20.3C233.5 14.7 229 10.2 223.4 10.2ZM205.9 10.7H209.6V32.8H205.9V30.2C201.2 34.5 193.9 34.3 189.6 29.6C185.3 24.9 185.5 17.6 190.2 13.3C192.3 11.3 195.1 10.2 198 10.2C200.9 10.2 203.7 11.3 205.9 13.3V10.7ZM205.9 21.7C205.9 17.4 202.4 13.9 198 13.9C193.7 13.9 190.2 17.4 190.2 21.8C190.2 26.1 193.7 29.6 198 29.6C202.4 29.5 205.9 26 205.9 21.7ZM245.8 14.3V10.6H240.3V4.6H236.6V25.4C236.6 29.5 239.9 32.8 244 32.8H245.8V29.1H244C242 29.1 240.3 27.4 240.3 25.4V14.3H245.8ZM160.5 2.7C159.1 2.7 158.1 3.8 158.1 5.1C158.1 6.5 159.2 7.5 160.5 7.5C161.9 7.5 162.9 6.4 162.9 5.1C163 3.8 161.9 2.7 160.5 2.7C160.6 2.7 160.6 2.7 160.5 2.7ZM184.5 10.7H166.1V14.4H179.7L166.1 29.1V32.8H184.5V29.1H170.8L184.4 14.4L184.5 10.7Z" fill="white"/>
<mask id="mask0_7_5" style="mask-type:luminance" maskUnits="userSpaceOnUse" x="0" y="22" width="32" height="22">
<path d="M0 22L15.3 44L31.1 34.5L22.2 22H0Z" fill="white"/>
</mask>
<g mask="url(#mask0_7_5)">
<path d="M0 22H31.1V44H0V22Z" fill="url(#paint0_linear_7_5)"/>
</g>
<mask id="mask1_7_5" style="mask-type:luminance" maskUnits="userSpaceOnUse" x="15" y="22" width="38" height="22">
<path d="M15.3 44H37.1L52.1 22L15.3 44Z" fill="white"/>
</mask>
<g mask="url(#mask1_7_5)">
<path d="M15.3 22H52.1V44H15.3V22Z" fill="url(#paint1_linear_7_5)"/>
</g>
<mask id="mask2_7_5" style="mask-type:luminance" maskUnits="userSpaceOnUse" x="0" y="0" width="32" height="22">
<path d="M15.3 0L0 22H22.2L31.1 9.5L15.3 0Z" fill="white"/>
</mask>
<g mask="url(#mask2_7_5)">
<path d="M0 0H31.1V22H0V0Z" fill="url(#paint2_linear_7_5)"/>
</g>
<mask id="mask3_7_5" style="mask-type:luminance" maskUnits="userSpaceOnUse" x="15" y="0" width="38" height="22">
<path d="M15.3 0L52.1 22L37.1 0H15.3Z" fill="white"/>
</mask>
<g mask="url(#mask3_7_5)">
<path d="M15.3 0H52.1V22H15.3V0Z" fill="url(#paint3_linear_7_5)"/>
</g>
</g>
<defs>
<linearGradient id="paint0_linear_7_5" x1="0.0073465" y1="32.9752" x2="31.1138" y2="32.9752" gradientUnits="userSpaceOnUse">
<stop stop-color="#3D54CE"/>
<stop offset="1" stop-color="#35CACF"/>
</linearGradient>
<linearGradient id="paint1_linear_7_5" x1="15.2926" y1="32.9752" x2="52.1402" y2="32.9752" gradientUnits="userSpaceOnUse">
<stop stop-color="#13457D"/>
<stop offset="1" stop-color="#279698"/>
</linearGradient>
<linearGradient id="paint2_linear_7_5" x1="-0.0050484" y1="10.9834" x2="31.1266" y2="10.9834" gradientUnits="userSpaceOnUse">
<stop stop-color="#090086"/>
<stop offset="1" stop-color="#2F96A9"/>
</linearGradient>
<linearGradient id="paint3_linear_7_5" x1="15.2926" y1="10.9834" x2="52.1402" y2="10.9834" gradientUnits="userSpaceOnUse">
<stop stop-color="#3B62CA"/>
<stop offset="1" stop-color="#93DFE3"/>
</linearGradient>
<clipPath id="clip0_7_5">
<rect width="245.8" height="44" fill="white"/>
</clipPath>
</defs>
</svg>
