<svg version="1.1" id="Camada_1" xmlns="http://www.w3.org/2000/svg" xmlns:xlink="http://www.w3.org/1999/xlink" x="0px" y="0px" viewBox="0 0 62.4 30" style="transform: rotate(360deg);" xml:space="preserve" class="esri-header-brand-image" alt="" width="84" height="30">
<style type="text/css">
	.st0{fill-rule:evenodd;clip-rule:evenodd;fill:#95C11F;}
	.st1{fill:#706F6F;}
</style>
<g>
	<polygon class="st0" points="27.5,0 35.2,0 35.2,10.5 27.5,10.5 27.5,0 	"></polygon>
	<g>
		<path class="st1" d="M1.3,15.3c-0.6,0-1.2-0.5-1.2-1.1c0-0.6,0.5-1.2,1.2-1.2c0.6,0,1.2,0.5,1.2,1.2C2.4,14.8,1.9,15.3,1.3,15.3z
			 M0.5,26.5v-9.4L2,16.9v9.6H0.5z"></path>
		<path class="st1" d="M15.9,26.5v-6.9c0-0.9-0.4-1.4-1.2-1.4c-0.9,0-1.5,0.5-2.5,1.5v6.9h-1.5v-6.7c0-0.6-0.1-0.9-0.3-1.2
			c-0.2-0.3-0.5-0.4-1-0.4c-0.7,0-1.4,0.4-2.4,1.2v7H5.6v-7.3c0-1.2-0.3-1.9-0.3-2l1.4-0.3c0.1,0.2,0.3,0.8,0.3,1.4
			c0.6-0.7,1.8-1.4,2.7-1.4c0.9,0,1.9,0.6,2.2,1.6c0.9-1,2.1-1.6,3-1.6c1.4,0,2.4,1.1,2.4,2.5v7.1H15.9z"></path>
		<path class="st1" d="M27.4,26.8c-0.6-0.2-1.1-0.7-1.3-1.4c-0.9,0.9-1.6,1.3-2.7,1.3c-2.3,0-3-1.4-3-2.7c0-2.1,1.8-3.4,5-3.4
			c0.2,0,0.4,0,0.7,0V20c0-0.8,0-1.2-0.3-1.5c-0.3-0.3-0.7-0.5-1.3-0.5c-1.1,0-2.4,0.6-3,1.1l-0.7-1.1c1.2-0.8,2.6-1.3,4-1.3
			c1.3,0,2.2,0.5,2.6,1.5c0.2,0.5,0.2,1.2,0.2,2.1l-0.1,3.1c0,1.5,0.1,1.9,0.8,2.3L27.4,26.8z M25.2,21.7c-2.4,0-3.2,0.8-3.2,2.2
			c0,1.1,0.5,1.7,1.6,1.7c1,0,1.9-0.6,2.3-1.5l0.1-2.5C25.8,21.7,25.4,21.7,25.2,21.7z"></path>
		<path class="st1" d="M37.3,18.5c-0.2,0-0.5,0-0.6-0.1c0.4,0.5,0.6,1,0.6,1.6c0,1.1-0.5,2-1.4,2.6c-0.5,0.3-1.1,0.4-1.8,0.4
			c-1.3,0.5-1.7,0.8-1.7,1.1c0,0.3,0.3,0.5,0.8,0.5h1.5c1.1,0,1.7,0.1,2.3,0.5c0.7,0.5,1,1.2,1,2c0,2-1.5,3-3.7,3
			c-3,0-4.1-1.1-4.1-2.4c0-0.3,0.1-0.6,0.2-1l1.6-0.1c-0.1,0.2-0.3,0.5-0.3,0.8c0,0.5,0.2,0.9,0.5,1.1c0.5,0.3,1.2,0.4,1.9,0.4
			c1.5,0,2.3-0.5,2.3-1.6c0-0.5-0.2-0.9-0.5-1.1c-0.4-0.2-0.9-0.3-1.9-0.3c-0.4,0-1.2,0-1.5,0c-1.1,0-1.8-0.5-1.8-1.4
			c0-0.8,0.4-1.2,1.7-1.6c-1.3-0.4-2.1-1.5-2.1-2.7c0-1.9,1.4-3.2,3.5-3.2c1.4,0,1.7,0.5,2.9,0.5c0.5,0,0.9-0.1,1.3-0.4l0.9,0.9
			C38.4,18.3,37.9,18.5,37.3,18.5z M33.8,18.1c-1.2,0-1.8,0.6-1.8,1.9c0,1.2,0.6,1.9,1.8,1.9c1.1,0,1.7-0.7,1.7-1.9
			C35.5,18.7,35.1,18.1,33.8,18.1z"></path>
		<path class="st1" d="M41.9,22v0.2c0,0.9,0.1,1.6,0.4,2.1c0.5,0.8,1.4,1.2,2.3,1.2c0.9,0,1.6-0.3,2.3-0.9l0.6,0.9
			c-0.8,0.8-2,1.2-3.2,1.2c-2.6,0-4.2-1.9-4.2-5c0-1.6,0.3-2.6,1.1-3.5c0.8-0.9,1.7-1.3,2.8-1.3c1,0,1.9,0.4,2.6,1
			c0.8,0.8,1.1,1.7,1.1,4V22H41.9z M45.8,18.8c-0.3-0.5-1-0.8-1.7-0.8c-1.3,0-2.1,1-2.2,2.9h4.3C46.2,19.9,46,19.3,45.8,18.8z"></path>
		<path class="st1" d="M60.9,26.5v-6.9c0-0.9-0.4-1.4-1.2-1.4c-0.9,0-1.5,0.5-2.5,1.5v6.9h-1.5v-6.7c0-0.6-0.1-0.9-0.3-1.2
			c-0.2-0.3-0.5-0.4-1-0.4c-0.7,0-1.4,0.4-2.4,1.2v7h-1.4v-7.3c0-1.2-0.3-1.9-0.3-2l1.4-0.3c0.1,0.2,0.3,0.8,0.3,1.4
			c0.6-0.7,1.8-1.4,2.7-1.4c0.9,0,1.9,0.6,2.2,1.6c0.9-1,2.1-1.6,3-1.6c1.4,0,2.4,1.1,2.4,2.5v7.1H60.9z"></path>
	</g>
</g>
</svg>